<svg width="2381" height="512" viewBox="0 0 2381 512" fill="none" xmlns="http://www.w3.org/2000/svg">
<rect width="512" height="512" rx="100" fill="url(#paint0_linear_209_44)"/>
<path fill-rule="evenodd" clip-rule="evenodd" d="M327.768 269.391C338.454 263.236 338.454 247.814 327.766 241.66L327.761 241.658L291.527 220.81L331.399 202.218L345.714 210.453L345.736 210.466L386.392 233.857C403.102 243.471 403.102 267.582 386.392 277.196L345.743 300.582L345.714 300.599L328.778 310.343L288.905 291.75L327.761 269.395L327.768 269.391ZM206 290.605V311.783V311.79C206.005 324.092 219.314 331.788 229.979 325.652L252.89 312.471L292.763 331.063L247.932 356.856L247.903 356.873L207.467 380.137C190.801 389.725 170 377.695 170 358.467L170 311.783L170 273.818L206 290.605ZM295.384 181.497L255.512 200.09L229.979 185.4L229.964 185.392C219.3 179.27 206 186.968 206 199.269V223.177L170 239.965L170 199.269L170 152.585C170 133.357 190.801 121.327 207.467 130.915L247.917 154.187L247.932 154.196L295.384 181.497Z" fill="url(#paint1_linear_209_44)"/>
<path d="M772.75 195.5L752 204C758.5 214 766 226.75 771 237.25L791.75 228.5C787.25 219.25 779 205 772.75 195.5ZM807.5 189L786.75 197.5C793.75 206.75 801.5 220.75 806.75 231L827.5 222.25C822.75 213.25 814 198.25 807.5 189ZM798.5 242.5L773.75 226.75C767.25 228.5 759.25 228.75 754.25 228.75C740.25 228.75 657.25 228.75 638.5 228.75C630.25 228.75 616.25 227.5 608.75 226.5V262C615.25 261.5 627.25 260.75 638.5 260.75C657.25 260.75 740 260.75 755 260.75C751.75 282.25 742.25 310.75 725.5 331.5C705.5 356.75 677.25 378.5 627.75 390L655 420C699.5 405.75 732.75 381 755.5 351C776.25 323.25 787.25 284.25 793 259.75C794.25 254.5 796.25 247.25 798.5 242.5ZM855.75 290.25V329.75C865.25 329 882 328.25 896 328.25C925.5 328.25 1007.75 328.25 1030.5 328.25C1041 328.25 1053.75 329.5 1059.75 329.75V290.25C1053 290.75 1042 292 1030.25 292C1008 292 925.5 292 896 292C883 292 865 291 855.75 290.25ZM1121 226.5L1129 255.5C1150.75 255 1187.5 254 1216 250C1235.25 247.25 1255.25 244 1270.75 240C1274.75 239 1281.5 237.25 1290 235L1269.25 207.5C1256.75 213.5 1231.5 219 1206.25 222.75C1178.75 226.75 1140.25 227 1121 226.5ZM1131.75 399L1163.75 420.5C1212 391.5 1228.5 348.75 1228.5 298.25C1228.5 298.25 1228.5 265 1228.5 243.5L1195.75 247.25C1195.75 282.75 1195.75 299 1195.75 299C1195.75 345.75 1176 378.75 1131.75 399ZM1102.25 286.5V318.75C1108.75 318.25 1118 317.75 1125.75 317.75C1140.5 317.75 1276.5 317.75 1292.25 317.75C1299.25 317.75 1307.5 318.25 1314.25 318.75V286.5C1308.75 287 1297 287.75 1291.75 287.75C1275 287.75 1141.25 287.75 1125.5 287.75C1117.5 287.75 1109.25 287 1102.25 286.5ZM1522.5 287L1498.5 275.25C1495.25 277 1485 278 1480 278C1468 278 1428.5 278 1415.75 278C1409.25 278 1397.75 277.25 1391 276.25V309.25C1398.25 308.75 1408.25 308.25 1416 308.25C1423.25 308.25 1471.75 308.25 1483.75 308.25C1482.5 325 1475 373.25 1471.75 389.75H1506.25C1509.25 371.75 1517.75 315 1520.25 297.5C1520.5 294.75 1521.5 290.25 1522.5 287ZM1368.25 377.5V410.25C1377.5 409.75 1384 409.5 1392.75 409.5C1405.5 409.5 1511.5 409.5 1524.5 409.5C1531 409.5 1543.25 409.75 1548.5 410V377.75C1542 378.5 1530.25 379 1524 379C1511.75 379 1407.75 379 1392.75 379C1384.25 379 1374.75 378.25 1368.25 377.5ZM1605.75 290.25V329.75C1615.25 329 1632 328.25 1646 328.25C1675.5 328.25 1757.75 328.25 1780.5 328.25C1791 328.25 1803.75 329.5 1809.75 329.75V290.25C1803 290.75 1792 292 1780.25 292C1758 292 1675.5 292 1646 292C1633 292 1615 291 1605.75 290.25ZM2007.86 195.5L1987.11 204C1993.61 214 2001.11 226.75 2006.11 237.25L2026.86 228.5C2022.36 219.25 2014.11 205 2007.86 195.5ZM2042.61 189L2021.86 197.5C2028.86 206.75 2036.61 220.75 2041.86 231L2062.61 222.25C2057.86 213.25 2049.11 198.25 2042.61 189ZM2033.61 242.5L2008.86 226.75C2002.36 228.5 1994.36 228.75 1989.36 228.75C1975.36 228.75 1892.36 228.75 1873.61 228.75C1865.36 228.75 1851.36 227.5 1843.86 226.5V262C1850.36 261.5 1862.36 260.75 1873.61 260.75C1892.36 260.75 1975.11 260.75 1990.11 260.75C1986.86 282.25 1977.36 310.75 1960.61 331.5C1940.61 356.75 1912.36 378.5 1862.86 390L1890.11 420C1934.61 405.75 1967.86 381 1990.61 351C2011.36 323.25 2022.36 284.25 2028.11 259.75C2029.36 254.5 2031.36 247.25 2033.61 242.5Z" fill="#213547"/>
<path d="M629.777 170H606.096L583.488 99.9805H606.193L616.887 143.096C617.733 146.579 618.205 149.183 618.303 150.908H618.791C618.986 148.727 619.491 146.025 620.305 142.803L630.705 99.9805H652.678L629.777 170ZM690.031 170V162.285H689.836C688.111 164.661 686.548 166.403 685.148 167.51C683.781 168.617 682.219 169.512 680.461 170.195C678.736 170.879 676.717 171.221 674.406 171.221C668.938 171.221 664.771 169.447 661.906 165.898C659.042 162.35 657.609 157.109 657.609 150.176V120H678.41V148.613C678.41 153.529 680.249 155.986 683.928 155.986C685.946 155.986 687.46 155.319 688.469 153.984C689.51 152.65 690.031 150.762 690.031 148.32V120H710.832V170H690.031ZM738.713 150.908C739.071 153.057 740.308 154.749 742.424 155.986C744.54 157.191 747.339 157.793 750.822 157.793C755.673 157.793 760.262 156.865 764.592 155.01V168.193C759.546 170.212 753.426 171.221 746.232 171.221C737.508 171.221 730.721 168.991 725.871 164.531C721.021 160.072 718.596 153.936 718.596 146.123C718.596 140.752 719.654 136.016 721.77 131.914C723.918 127.812 727.076 124.606 731.242 122.295C735.441 119.951 740.064 118.779 745.109 118.779C750.285 118.779 754.712 119.788 758.391 121.807C762.069 123.825 764.852 126.657 766.74 130.303C768.661 133.949 769.621 138.213 769.621 143.096V150.908H738.713ZM751.213 140.02C751.213 134.258 749.146 131.377 745.012 131.377C743.286 131.377 741.838 132.174 740.666 133.77C739.494 135.332 738.811 137.415 738.615 140.02H751.213ZM814.152 116.484V170H792.961V116.484H773.381V99.9805H833.977V116.484H814.152ZM872.355 170V162.285H872.16C870.435 164.661 868.872 166.403 867.473 167.51C866.105 168.617 864.543 169.512 862.785 170.195C861.06 170.879 859.042 171.221 856.73 171.221C851.262 171.221 847.095 169.447 844.23 165.898C841.366 162.35 839.934 157.109 839.934 150.176V120H860.734V148.613C860.734 153.529 862.574 155.986 866.252 155.986C868.27 155.986 869.784 155.319 870.793 153.984C871.835 152.65 872.355 150.762 872.355 148.32V120H893.156V170H872.355ZM959.514 143.486C959.514 148.955 958.602 153.805 956.779 158.037C954.989 162.236 952.434 165.492 949.113 167.803C945.793 170.081 942.033 171.221 937.834 171.221C934.611 171.221 931.844 170.635 929.533 169.463C927.255 168.258 925.448 166.712 924.113 164.824H923.918V170H903.117V95.9766H923.918V126.787H924.113C925.741 124.313 927.938 122.36 930.705 120.928C933.505 119.495 936.581 118.779 939.934 118.779C946.249 118.779 951.083 120.879 954.436 125.078C957.821 129.277 959.514 135.413 959.514 143.486ZM938.42 144.121C938.42 140.768 937.769 138.245 936.467 136.553C935.197 134.86 933.358 134.014 930.949 134.014C928.833 134.014 927.059 134.909 925.627 136.699C924.227 138.457 923.527 140.752 923.527 143.584V146.611C923.527 149.476 924.162 151.755 925.432 153.447C926.701 155.14 928.41 155.986 930.559 155.986C933.065 155.986 935.002 154.961 936.369 152.91C937.736 150.827 938.42 147.897 938.42 144.121ZM985.295 150.908C985.653 153.057 986.89 154.749 989.006 155.986C991.122 157.191 993.921 157.793 997.404 157.793C1002.25 157.793 1006.84 156.865 1011.17 155.01V168.193C1006.13 170.212 1000.01 171.221 992.814 171.221C984.09 171.221 977.303 168.991 972.453 164.531C967.603 160.072 965.178 153.936 965.178 146.123C965.178 140.752 966.236 136.016 968.352 131.914C970.5 127.812 973.658 124.606 977.824 122.295C982.023 119.951 986.646 118.779 991.691 118.779C996.867 118.779 1001.29 119.788 1004.97 121.807C1008.65 123.825 1011.43 126.657 1013.32 130.303C1015.24 133.949 1016.2 138.213 1016.2 143.096V150.908H985.295ZM997.795 140.02C997.795 134.258 995.728 131.377 991.594 131.377C989.868 131.377 988.42 132.174 987.248 133.77C986.076 135.332 985.393 137.415 985.197 140.02H997.795Z" fill="#213547"/>
<defs>
<linearGradient id="paint0_linear_209_44" x1="0" y1="0" x2="512" y2="512" gradientUnits="userSpaceOnUse">
<stop stop-color="#1B3245"/>
<stop offset="1" stop-color="#0C2028"/>
</linearGradient>
<linearGradient id="paint1_linear_209_44" x1="170" y1="128" x2="431" y2="389" gradientUnits="userSpaceOnUse">
<stop stop-color="#00E1C3"/>
<stop offset="1" stop-color="#00D1D5"/>
</linearGradient>
</defs>
</svg>
